<svg id="Layer_1" data-name="Layer 1" xmlns="http://www.w3.org/2000/svg" viewBox="0 0 18 18"><defs><style>.cls-1{fill:#a57e44;}</style></defs><title>32_TablesActive</title><path class="cls-1" d="M29.05,27a2,2,0,1,0,2,2A2,2,0,0,0,29.05,27Zm7,0a2,2,0,1,0,2,2A2,2,0,0,0,36,27Zm7,4a2,2,0,1,0-2-2A2,2,0,0,0,43,31Zm-13.9,3a2,2,0,1,0,2,2A2,2,0,0,0,29.05,34Zm7,0a2,2,0,1,0,2,2A2,2,0,0,0,36,34Zm7,0a2,2,0,1,0,2,2A2,2,0,0,0,43,34Zm-13.9,7a2,2,0,1,0,2,2A2,2,0,0,0,29.05,41Zm7,0a2,2,0,1,0,2,2A2,2,0,0,0,36,41Zm7,0a2,2,0,1,0,2,2A2,2,0,0,0,43,41Z" transform="translate(-27 -27)"/></svg>