<svg
        xmlns="http://www.w3.org/2000/svg"
        xmlns:xlink="http://www.w3.org/1999/xlink"
        width="13px" height="8px">
    <path fill-rule="evenodd"  fill="rgb(255, 255, 255)"
          d="M0.192,3.590 L3.764,0.133 C3.981,-0.078 4.335,-0.078 4.553,0.133 C4.771,0.344 4.771,0.686 4.553,0.897 L1.934,3.432 L11.473,3.432 C11.781,3.432 12.031,3.674 12.031,3.972 C12.031,4.270 11.781,4.512 11.473,4.512 L1.934,4.512 L4.553,7.047 C4.771,7.258 4.771,7.600 4.553,7.811 C4.444,7.916 4.301,7.969 4.158,7.969 C4.015,7.969 3.872,7.916 3.763,7.811 L0.192,4.354 C-0.026,4.143 -0.026,3.800 0.192,3.590 Z"/>
</svg>