<svg
        xmlns="http://www.w3.org/2000/svg"
        xmlns:xlink="http://www.w3.org/1999/xlink"
        width="20px" height="17px">
    <path fill-rule="evenodd"  fill="rgb(255, 255, 255)"
          d="M19.143,9.382 L0.857,9.382 C0.386,9.382 -0.000,8.985 -0.000,8.500 C-0.000,8.015 0.386,7.618 0.857,7.618 L19.143,7.618 C19.614,7.618 20.000,8.015 20.000,8.500 C20.000,8.985 19.614,9.382 19.143,9.382 ZM19.143,1.765 L0.857,1.765 C0.386,1.765 -0.000,1.368 -0.000,0.882 C-0.000,0.397 0.386,-0.000 0.857,-0.000 L19.143,-0.000 C19.614,-0.000 20.000,0.397 20.000,0.882 C20.000,1.368 19.614,1.765 19.143,1.765 ZM0.857,15.235 L19.143,15.235 C19.614,15.235 20.000,15.632 20.000,16.118 C20.000,16.603 19.614,17.000 19.143,17.000 L0.857,17.000 C0.386,17.000 -0.000,16.603 -0.000,16.118 C-0.000,15.632 0.386,15.235 0.857,15.235 Z"/>
</svg>