<svg
        xmlns="http://www.w3.org/2000/svg"
        xmlns:xlink="http://www.w3.org/1999/xlink"
        width="13px" height="9px">
    <path fill-rule="evenodd"  fill="rgb(255, 255, 255)"
          d="M11.840,4.604 L8.268,1.133 C8.050,0.922 7.696,0.922 7.478,1.133 C7.260,1.345 7.260,1.688 7.478,1.901 L10.098,4.445 L0.558,4.445 C0.250,4.445 0.000,4.688 0.000,4.987 C0.000,5.287 0.250,5.530 0.558,5.530 L10.098,5.530 L7.479,8.074 C7.260,8.286 7.260,8.629 7.479,8.841 C7.587,8.947 7.730,9.000 7.873,9.000 C8.016,9.000 8.159,8.947 8.268,8.841 L11.840,5.371 C12.058,5.159 12.058,4.815 11.840,4.604 Z"/>
</svg>