<svg id="Layer_1" data-name="Layer 1" xmlns="http://www.w3.org/2000/svg" xmlns:xlink="http://www.w3.org/1999/xlink" viewBox="0 0 17 15.9"><defs><style>.cls-1{stroke:#e2b84d;stroke-miterlimit:10;fill:url(#linear-gradient);}</style><linearGradient id="linear-gradient" x1="36" y1="30.45" x2="36" y2="45.45" gradientTransform="matrix(1, 0, 0, -1, 0, 74)" gradientUnits="userSpaceOnUse"><stop offset="0" stop-color="#e4a645"/><stop offset="1" stop-color="#e7c648"/></linearGradient></defs><title>14_StarYellow</title><path class="cls-1" d="M44,34.35a.46.46,0,0,0-.5-.4l-4.8-.7L36.5,29a.51.51,0,0,0-.5-.4c-.2,0-.3.1-.5.4l-2.2,4.3-4.8.7c-.4.1-.5.2-.5.4a1.69,1.69,0,0,0,.2.5l3.5,3.3-.8,4.7v.2a.35.35,0,0,0,.4.4.76.76,0,0,0,.4-.1l4.3-2.2,4.3,2.2a.6.6,0,0,0,.4.1.35.35,0,0,0,.4-.4v-.2l-.8-4.7,3.5-3.3C43.9,34.65,44,34.55,44,34.35Z" transform="translate(-27.5 -28.05)"/></svg>