<svg
        xmlns="http://www.w3.org/2000/svg"
        xmlns:xlink="http://www.w3.org/1999/xlink"
        width="17px" height="17px">
    <path fill-rule="evenodd"  fill="rgb(95, 95, 95)"
          d="M15.826,12.936 L13.356,10.454 C12.864,9.962 12.049,9.977 11.540,10.488 L10.296,11.738 C10.217,11.694 10.136,11.649 10.050,11.601 C9.265,11.163 8.189,10.564 7.057,9.426 C5.922,8.286 5.324,7.203 4.887,6.413 C4.841,6.330 4.797,6.249 4.754,6.172 L5.589,5.334 L5.999,4.921 C6.509,4.409 6.523,3.591 6.032,3.097 L3.562,0.615 C3.071,0.122 2.256,0.137 1.746,0.649 L1.050,1.353 L1.069,1.371 C0.836,1.671 0.641,2.016 0.496,2.388 C0.362,2.742 0.278,3.080 0.240,3.419 C-0.086,6.136 1.150,8.619 4.503,11.987 C9.139,16.644 12.874,16.292 13.036,16.275 C13.387,16.233 13.723,16.149 14.065,16.015 C14.432,15.871 14.776,15.676 15.073,15.442 L15.088,15.455 L15.794,14.761 C16.303,14.249 16.317,13.430 15.826,12.936 Z"/>
</svg>