<svg
        xmlns="http://www.w3.org/2000/svg"
        xmlns:xlink="http://www.w3.org/1999/xlink"
        width="18px" height="18px">
    <path fill-rule="evenodd"  fill="rgb(95, 95, 95)"
          d="M16.977,8.748 C16.696,9.138 16.703,9.656 16.988,10.038 L17.251,10.389 C17.652,10.928 17.482,11.686 16.888,12.006 L16.500,12.218 C16.077,12.447 15.850,12.917 15.939,13.383 L16.020,13.810 C16.145,14.464 15.654,15.076 14.975,15.114 L14.531,15.138 C14.047,15.163 13.635,15.489 13.507,15.948 L13.390,16.369 C13.208,17.009 12.497,17.353 11.868,17.099 L11.456,16.932 C11.008,16.751 10.492,16.870 10.172,17.228 L9.881,17.555 C9.436,18.059 8.643,18.062 8.188,17.569 L7.893,17.245 C7.570,16.891 7.051,16.779 6.606,16.967 L6.197,17.137 C5.572,17.402 4.854,17.071 4.665,16.432 L4.541,16.014 C4.406,15.559 3.986,15.239 3.503,15.218 L3.058,15.201 C2.379,15.173 1.878,14.568 1.992,13.915 L2.066,13.487 C2.148,13.018 1.913,12.552 1.487,12.329 L1.096,12.124 C0.495,11.808 0.314,11.053 0.705,10.511 L0.961,10.156 C1.241,9.767 1.234,9.249 0.950,8.866 L0.687,8.515 C0.285,7.980 0.456,7.222 1.050,6.899 L1.437,6.686 C1.860,6.457 2.088,5.988 1.999,5.522 L1.917,5.094 C1.793,4.441 2.283,3.829 2.962,3.790 L3.407,3.766 C3.890,3.742 4.303,3.415 4.430,2.956 L4.548,2.535 C4.729,1.896 5.440,1.551 6.070,1.805 L6.482,1.972 C6.930,2.153 7.445,2.035 7.765,1.677 L8.057,1.350 C8.505,0.846 9.298,0.842 9.749,1.336 L10.044,1.659 C10.368,2.014 10.887,2.125 11.331,1.937 L11.740,1.767 C12.366,1.503 13.084,1.833 13.272,2.473 L13.397,2.890 C13.532,3.345 13.951,3.665 14.435,3.686 L14.879,3.703 C15.558,3.731 16.060,4.336 15.946,4.990 L15.871,5.417 C15.789,5.887 16.024,6.353 16.451,6.575 L16.842,6.780 C17.443,7.097 17.624,7.851 17.233,8.394 L16.977,8.748 ZM6.660,6.301 C5.693,6.301 4.910,7.065 4.910,8.011 C4.910,8.953 5.693,9.722 6.660,9.722 C7.627,9.722 8.409,8.957 8.409,8.011 C8.409,7.065 7.627,6.301 6.660,6.301 ZM11.530,6.429 C11.349,6.283 11.079,6.308 10.929,6.485 L6.340,11.891 C6.190,12.068 6.215,12.333 6.397,12.479 C6.578,12.625 6.848,12.600 6.997,12.423 L11.587,7.017 C11.737,6.839 11.712,6.575 11.530,6.429 ZM11.271,9.179 C10.304,9.179 9.522,9.944 9.522,10.890 C9.522,11.835 10.304,12.600 11.271,12.600 C12.238,12.600 13.020,11.835 13.020,10.890 C13.020,9.944 12.238,9.179 11.271,9.179 ZM11.271,11.599 C10.870,11.599 10.546,11.281 10.546,10.890 C10.546,10.498 10.870,10.181 11.271,10.181 C11.671,10.181 11.996,10.498 11.996,10.890 C11.996,11.281 11.671,11.599 11.271,11.599 ZM6.663,8.720 C6.263,8.720 5.938,8.403 5.938,8.011 C5.938,7.619 6.263,7.302 6.663,7.302 C7.064,7.302 7.388,7.619 7.388,8.011 C7.388,8.403 7.064,8.720 6.663,8.720 Z"/>
</svg>