<svg
        xmlns="http://www.w3.org/2000/svg"
        xmlns:xlink="http://www.w3.org/1999/xlink"
        width="16px" height="12px">
    <path fill-rule="evenodd"  fill="rgb(95, 95, 95)"
          d="M16.000,10.000 C16.000,10.351 15.901,10.676 15.743,10.962 L10.691,5.310 L15.688,0.937 C15.883,1.246 16.000,1.608 16.000,2.000 L16.000,10.000 ZM8.000,6.336 L14.953,0.252 C14.668,0.096 14.347,0.000 14.000,0.000 L2.000,0.000 C1.653,0.000 1.332,0.096 1.047,0.252 L8.000,6.336 ZM9.939,5.968 L8.329,7.377 C8.235,7.459 8.118,7.500 8.000,7.500 C7.882,7.500 7.765,7.459 7.671,7.377 L6.061,5.968 L0.945,11.692 C1.252,11.885 1.611,12.000 2.000,12.000 L14.000,12.000 C14.389,12.000 14.748,11.885 15.055,11.692 L9.939,5.968 ZM0.312,0.937 C0.117,1.246 0.000,1.608 0.000,2.000 L0.000,10.000 C0.000,10.351 0.098,10.676 0.257,10.962 L5.308,5.309 L0.312,0.937 Z"/>
</svg>