<svg
        xmlns="http://www.w3.org/2000/svg"
        xmlns:xlink="http://www.w3.org/1999/xlink"
        width="12px" height="17px">
    <path fill-rule="evenodd"  fill="rgb(95, 95, 95)"
          d="M6.000,-0.000 C2.692,-0.000 -0.000,2.599 -0.000,5.794 C-0.000,9.760 5.369,16.581 5.598,16.827 C5.813,17.058 6.188,17.057 6.402,16.827 C6.631,16.581 12.000,9.760 12.000,5.794 C12.000,2.599 9.308,-0.000 6.000,-0.000 ZM6.000,8.710 C4.335,8.710 2.981,7.402 2.981,5.794 C2.981,4.187 4.335,2.879 6.000,2.879 C7.665,2.879 9.019,4.187 9.019,5.795 C9.019,7.402 7.665,8.710 6.000,8.710 Z"/>
</svg>