<svg
        xmlns="http://www.w3.org/2000/svg"
        xmlns:xlink="http://www.w3.org/1999/xlink"
        width="23px" height="22px">
    <path fill-rule="evenodd" fill="rgb(255, 255, 255)"
          d="M21.934,10.651 C21.569,10.651 21.274,10.356 21.274,9.991 C21.274,7.675 20.372,5.498 18.734,3.860 C17.096,2.222 14.918,1.320 12.602,1.320 C12.238,1.320 11.942,1.024 11.942,0.660 C11.942,0.296 12.238,0.000 12.602,0.000 C15.271,0.000 17.780,1.039 19.667,2.926 C21.554,4.814 22.594,7.323 22.594,9.991 C22.594,10.356 22.298,10.651 21.934,10.651 ZM12.602,6.694 L12.602,6.694 C13.496,6.694 14.302,7.028 14.934,7.660 C15.566,8.291 15.900,9.098 15.900,9.991 C15.900,10.356 15.604,10.651 15.240,10.651 C14.875,10.651 14.580,10.355 14.580,9.991 C14.580,9.456 14.380,8.972 14.001,8.593 C13.616,8.209 13.146,8.014 12.603,8.014 C12.602,8.014 12.602,8.014 12.602,8.014 C12.238,8.014 11.943,7.718 11.943,7.354 C11.942,6.989 12.238,6.694 12.602,6.694 ZM12.602,3.347 C14.377,3.347 16.046,4.038 17.301,5.293 C18.556,6.548 19.247,8.217 19.247,9.991 C19.247,10.356 18.951,10.651 18.587,10.651 C18.222,10.651 17.927,10.356 17.927,9.991 C17.927,8.569 17.373,7.232 16.367,6.226 C15.362,5.220 14.025,4.667 12.602,4.667 C12.238,4.667 11.942,4.371 11.942,4.007 C11.942,3.642 12.238,3.347 12.602,3.347 ZM8.572,8.133 C8.314,8.391 7.976,8.519 7.638,8.519 C7.515,8.519 7.392,8.502 7.272,8.467 L6.849,8.891 C6.849,8.891 6.849,8.891 6.849,8.891 C6.548,9.192 7.010,11.062 9.271,13.323 C11.532,15.584 13.402,16.045 13.703,15.744 C13.703,15.744 13.703,15.744 13.703,15.744 L14.126,15.321 C13.998,14.874 14.109,14.373 14.460,14.022 L15.581,12.901 C16.096,12.386 16.933,12.386 17.447,12.901 L21.758,17.211 C22.273,17.726 22.273,18.563 21.758,19.078 L20.637,20.199 C20.388,20.448 20.057,20.586 19.704,20.586 C19.578,20.586 19.455,20.567 19.337,20.533 L19.102,20.768 C18.285,21.585 17.145,22.000 15.778,22.000 C14.945,22.000 14.027,21.846 13.045,21.535 C10.602,20.761 8.014,19.092 5.758,16.836 C3.501,14.579 1.833,11.991 1.058,9.548 C0.268,7.053 0.492,4.966 1.684,3.641 C1.702,3.618 2.060,3.256 2.060,3.256 C1.932,2.809 2.043,2.308 2.394,1.956 L3.515,0.835 C3.765,0.586 4.096,0.449 4.449,0.449 C4.801,0.449 5.132,0.586 5.382,0.835 L9.692,5.146 C10.207,5.661 10.207,6.498 9.692,7.013 L8.572,8.133 ZM19.704,19.266 C19.704,19.266 20.825,18.145 20.825,18.145 L16.514,13.834 L15.393,14.955 L19.704,19.266 ZM2.758,4.425 L2.758,4.425 C1.809,5.374 1.652,7.052 2.317,9.150 C3.028,11.395 4.582,13.793 6.691,15.902 C8.800,18.012 11.199,19.565 13.444,20.277 C15.541,20.942 17.219,20.785 18.169,19.836 C18.169,19.835 18.169,19.835 18.169,19.835 L18.288,19.716 L14.943,16.371 L14.636,16.677 C14.636,16.678 14.636,16.678 14.636,16.678 C14.316,16.998 13.895,17.141 13.410,17.141 C11.968,17.141 9.959,15.877 8.338,14.256 C6.171,12.090 4.644,9.231 5.915,7.958 C5.915,7.958 5.915,7.958 5.916,7.958 L6.223,7.651 L2.877,4.306 L2.758,4.425 ZM4.449,1.768 L3.328,2.890 L5.483,5.045 L7.622,7.184 L7.639,7.200 C7.639,7.200 7.639,7.201 7.639,7.201 L8.759,6.079 L4.449,1.768 Z"/>
</svg>