<svg
        xmlns="http://www.w3.org/2000/svg"
        xmlns:xlink="http://www.w3.org/1999/xlink"
        width="54px" height="54px">
    <path fill-rule="evenodd"  fill="rgb(68, 201, 0)"
          d="M27.000,0.000 C12.027,0.000 -0.000,12.027 -0.000,27.000 C-0.000,41.973 12.027,54.000 27.000,54.000 C41.973,54.000 54.000,41.973 54.000,27.000 C54.000,12.027 41.973,0.000 27.000,0.000 ZM42.586,18.532 L42.586,18.532 L42.586,18.532 L22.950,38.905 C22.704,39.150 22.459,39.273 22.091,39.273 C21.723,39.273 21.354,39.150 21.232,38.905 L11.659,28.596 L11.414,28.350 C11.168,28.105 11.045,27.736 11.045,27.491 C11.045,27.246 11.168,26.877 11.414,26.632 L13.132,24.914 C13.623,24.423 14.359,24.423 14.850,24.914 L14.973,25.037 L21.723,32.277 C21.968,32.523 22.336,32.523 22.582,32.277 L39.027,15.218 L39.150,15.218 C39.641,14.727 40.377,14.727 40.868,15.218 L42.586,16.936 C43.077,17.305 43.077,18.041 42.586,18.532 Z"/>
</svg>