<svg
        xmlns="http://www.w3.org/2000/svg"
        xmlns:xlink="http://www.w3.org/1999/xlink"
        width="15px" height="18px">
    <path fill-rule="evenodd"  fill="rgb(95, 95, 95)"
          d="M14.895,14.332 C14.895,14.332 14.820,15.370 14.744,15.828 C14.744,15.828 12.188,17.531 7.907,17.531 C3.626,17.528 1.069,15.828 1.069,15.828 C0.994,15.370 0.918,14.332 0.918,14.332 C0.867,13.568 0.929,12.019 2.238,11.678 C3.993,11.220 5.419,10.192 5.419,10.192 L6.536,13.800 L6.745,14.480 L6.749,14.469 L6.931,15.046 L7.518,13.339 C6.075,11.276 7.810,11.298 7.907,11.301 C8.003,11.298 9.738,11.276 8.295,13.339 L8.882,15.046 L9.065,14.469 L9.068,14.480 L9.278,13.800 L10.391,10.192 C10.391,10.192 11.817,11.220 13.572,11.678 C14.881,12.019 14.943,13.568 14.895,14.332 ZM10.858,7.739 C10.703,8.742 9.920,10.020 8.694,10.474 C8.181,10.664 7.622,10.660 7.110,10.477 C5.862,10.027 5.103,8.746 4.952,7.739 C4.787,7.725 4.571,7.489 4.333,6.644 C4.014,5.486 4.354,5.314 4.643,5.342 C4.588,5.184 4.547,5.025 4.519,4.867 C4.416,4.325 4.388,3.821 4.512,3.339 C4.660,2.695 5.000,2.178 5.381,1.776 C5.622,1.512 5.897,1.280 6.185,1.093 C6.422,0.925 6.684,0.780 6.969,0.682 C7.192,0.608 7.429,0.555 7.680,0.544 C8.453,0.477 9.040,0.675 9.463,0.932 C10.092,1.287 10.332,1.759 10.332,1.759 C10.332,1.759 11.775,1.861 11.288,4.863 C11.260,5.018 11.219,5.180 11.164,5.338 C11.452,5.310 11.793,5.483 11.473,6.641 C11.239,7.489 11.023,7.725 10.858,7.739 Z"/>
</svg>